<svg width="240" height="240" viewBox="0 0 240 240" fill="none" xmlns="http://www.w3.org/2000/svg">
<g clip-path="url(#clip0_520_110)">
<rect width="240" height="240" fill="#F9F9F9"/>
<path d="M4.19602 235V205.909H14.5653C16.8191 205.909 18.6894 206.297 20.1761 207.074C21.6723 207.85 22.7898 208.925 23.5284 210.298C24.267 211.662 24.6364 213.239 24.6364 215.028C24.6364 216.809 24.2623 218.376 23.5142 219.73C22.7756 221.075 21.6581 222.121 20.1619 222.869C18.6752 223.617 16.8049 223.991 14.5511 223.991H6.69602V220.213H14.1534C15.5739 220.213 16.7292 220.009 17.6193 219.602C18.5189 219.195 19.1771 218.603 19.5938 217.827C20.0104 217.05 20.2188 216.117 20.2188 215.028C20.2188 213.93 20.0057 212.978 19.5795 212.173C19.1629 211.368 18.5047 210.753 17.6051 210.327C16.715 209.891 15.5455 209.673 14.0966 209.673H8.58523V235H4.19602ZM18.5568 221.875L25.7443 235H20.7443L13.6989 221.875H18.5568ZM36.5533 235.44C34.5078 235.44 32.7228 234.972 31.1982 234.034C29.6735 233.097 28.4898 231.785 27.647 230.099C26.8042 228.414 26.3828 226.444 26.3828 224.19C26.3828 221.927 26.8042 219.948 27.647 218.253C28.4898 216.558 29.6735 215.241 31.1982 214.304C32.7228 213.366 34.5078 212.898 36.5533 212.898C38.5987 212.898 40.3838 213.366 41.9084 214.304C43.433 215.241 44.6167 216.558 45.4595 218.253C46.3023 219.948 46.7237 221.927 46.7237 224.19C46.7237 226.444 46.3023 228.414 45.4595 230.099C44.6167 231.785 43.433 233.097 41.9084 234.034C40.3838 234.972 38.5987 235.44 36.5533 235.44ZM36.5675 231.875C37.8932 231.875 38.9917 231.525 39.8629 230.824C40.7341 230.123 41.3781 229.19 41.7947 228.026C42.2209 226.861 42.4339 225.578 42.4339 224.176C42.4339 222.784 42.2209 221.506 41.7947 220.341C41.3781 219.167 40.7341 218.224 39.8629 217.514C38.9917 216.804 37.8932 216.449 36.5675 216.449C35.2322 216.449 34.1243 216.804 33.2436 217.514C32.3724 218.224 31.7237 219.167 31.2976 220.341C30.8809 221.506 30.6726 222.784 30.6726 224.176C30.6726 225.578 30.8809 226.861 31.2976 228.026C31.7237 229.19 32.3724 230.123 33.2436 230.824C34.1243 231.525 35.2322 231.875 36.5675 231.875ZM53.7116 222.045V235H49.4645V205.909H53.6548V216.733H53.9247C54.4361 215.559 55.2173 214.626 56.2685 213.935C57.3196 213.243 58.6927 212.898 60.3878 212.898C61.884 212.898 63.1908 213.205 64.3082 213.821C65.4351 214.437 66.3063 215.355 66.9219 216.577C67.5469 217.789 67.8594 219.304 67.8594 221.122V235H63.6122V221.634C63.6122 220.033 63.2003 218.793 62.3764 217.912C61.5526 217.022 60.4067 216.577 58.9389 216.577C57.9351 216.577 57.0355 216.79 56.2401 217.216C55.4541 217.642 54.8338 218.267 54.3793 219.091C53.9342 219.905 53.7116 220.89 53.7116 222.045ZM71.527 235V213.182H75.7741V235H71.527ZM73.6719 209.815C72.9332 209.815 72.2988 209.569 71.7685 209.077C71.2476 208.575 70.9872 207.978 70.9872 207.287C70.9872 206.586 71.2476 205.99 71.7685 205.497C72.2988 204.995 72.9332 204.744 73.6719 204.744C74.4105 204.744 75.0402 204.995 75.5611 205.497C76.0914 205.99 76.3565 206.586 76.3565 207.287C76.3565 207.978 76.0914 208.575 75.5611 209.077C75.0402 209.569 74.4105 209.815 73.6719 209.815ZM89.6726 213.182V216.591H77.755V213.182H89.6726ZM80.951 207.955H85.1982V228.594C85.1982 229.418 85.3213 230.038 85.5675 230.455C85.8137 230.862 86.1309 231.141 86.5192 231.293C86.9169 231.435 87.3478 231.506 87.8118 231.506C88.1527 231.506 88.451 231.482 88.7067 231.435C88.9624 231.387 89.1612 231.349 89.3033 231.321L90.0703 234.83C89.8241 234.924 89.4737 235.019 89.0192 235.114C88.5646 235.218 87.9964 235.275 87.3146 235.284C86.1972 235.303 85.1555 235.104 84.1896 234.688C83.2237 234.271 82.4425 233.627 81.8459 232.756C81.2493 231.884 80.951 230.791 80.951 229.474V207.955ZM129.776 205.909H134.151V226.534C134.151 228.4 133.782 229.995 133.043 231.321C132.314 232.647 131.287 233.66 129.961 234.361C128.635 235.052 127.082 235.398 125.302 235.398C123.664 235.398 122.191 235.099 120.884 234.503C119.587 233.906 118.559 233.04 117.802 231.903C117.054 230.758 116.68 229.366 116.68 227.727H121.04C121.04 228.532 121.225 229.228 121.594 229.815C121.973 230.402 122.489 230.862 123.143 231.193C123.806 231.515 124.563 231.676 125.415 231.676C126.344 231.676 127.129 231.482 127.773 231.094C128.427 230.696 128.924 230.114 129.265 229.347C129.606 228.58 129.776 227.642 129.776 226.534V205.909ZM147.602 235.44C145.453 235.44 143.601 234.981 142.048 234.062C140.505 233.134 139.312 231.832 138.469 230.156C137.635 228.471 137.219 226.496 137.219 224.233C137.219 221.998 137.635 220.028 138.469 218.324C139.312 216.619 140.486 215.289 141.991 214.332C143.507 213.376 145.277 212.898 147.304 212.898C148.535 212.898 149.728 213.101 150.884 213.509C152.039 213.916 153.076 214.555 153.994 215.426C154.913 216.297 155.637 217.429 156.168 218.821C156.698 220.204 156.963 221.884 156.963 223.864V225.369H139.619V222.188H152.801C152.801 221.07 152.574 220.08 152.119 219.219C151.665 218.348 151.026 217.661 150.202 217.159C149.387 216.657 148.431 216.406 147.332 216.406C146.139 216.406 145.098 216.7 144.207 217.287C143.327 217.865 142.645 218.622 142.162 219.56C141.688 220.488 141.452 221.496 141.452 222.585V225.071C141.452 226.529 141.707 227.77 142.219 228.793C142.74 229.815 143.464 230.597 144.392 231.136C145.32 231.667 146.404 231.932 147.645 231.932C148.45 231.932 149.184 231.818 149.847 231.591C150.509 231.354 151.082 231.004 151.565 230.54C152.048 230.076 152.418 229.503 152.673 228.821L156.693 229.545C156.371 230.729 155.794 231.766 154.96 232.656C154.136 233.537 153.099 234.223 151.849 234.716C150.609 235.199 149.193 235.44 147.602 235.44ZM169.86 213.182V216.591H157.942V213.182H169.86ZM161.138 207.955H165.386V228.594C165.386 229.418 165.509 230.038 165.755 230.455C166.001 230.862 166.318 231.141 166.707 231.293C167.104 231.435 167.535 231.506 167.999 231.506C168.34 231.506 168.638 231.482 168.894 231.435C169.15 231.387 169.349 231.349 169.491 231.321L170.258 234.83C170.012 234.924 169.661 235.019 169.207 235.114C168.752 235.218 168.184 235.275 167.502 235.284C166.385 235.303 165.343 235.104 164.377 234.688C163.411 234.271 162.63 233.627 162.033 232.756C161.437 231.884 161.138 230.791 161.138 229.474V207.955ZM177.274 222.045V235H173.027V205.909H177.217V216.733H177.487C177.999 215.559 178.78 214.626 179.831 213.935C180.882 213.243 182.255 212.898 183.95 212.898C185.446 212.898 186.753 213.205 187.871 213.821C188.998 214.437 189.869 215.355 190.484 216.577C191.109 217.789 191.422 219.304 191.422 221.122V235H187.175V221.634C187.175 220.033 186.763 218.793 185.939 217.912C185.115 217.022 183.969 216.577 182.501 216.577C181.498 216.577 180.598 216.79 179.803 217.216C179.017 217.642 178.396 218.267 177.942 219.091C177.497 219.905 177.274 220.89 177.274 222.045ZM204.28 235.44C202.234 235.44 200.449 234.972 198.925 234.034C197.4 233.097 196.216 231.785 195.374 230.099C194.531 228.414 194.109 226.444 194.109 224.19C194.109 221.927 194.531 219.948 195.374 218.253C196.216 216.558 197.4 215.241 198.925 214.304C200.449 213.366 202.234 212.898 204.28 212.898C206.325 212.898 208.11 213.366 209.635 214.304C211.16 215.241 212.343 216.558 213.186 218.253C214.029 219.948 214.45 221.927 214.45 224.19C214.45 226.444 214.029 228.414 213.186 230.099C212.343 231.785 211.16 233.097 209.635 234.034C208.11 234.972 206.325 235.44 204.28 235.44ZM204.294 231.875C205.62 231.875 206.718 231.525 207.589 230.824C208.461 230.123 209.105 229.19 209.521 228.026C209.947 226.861 210.161 225.578 210.161 224.176C210.161 222.784 209.947 221.506 209.521 220.341C209.105 219.167 208.461 218.224 207.589 217.514C206.718 216.804 205.62 216.449 204.294 216.449C202.959 216.449 201.851 216.804 200.97 217.514C200.099 218.224 199.45 219.167 199.024 220.341C198.607 221.506 198.399 222.784 198.399 224.176C198.399 225.578 198.607 226.861 199.024 228.026C199.45 229.19 200.099 230.123 200.97 230.824C201.851 231.525 202.959 231.875 204.294 231.875ZM226.594 235.44C224.445 235.44 222.594 234.981 221.04 234.062C219.497 233.134 218.304 231.832 217.461 230.156C216.628 228.471 216.211 226.496 216.211 224.233C216.211 221.998 216.628 220.028 217.461 218.324C218.304 216.619 219.478 215.289 220.984 214.332C222.499 213.376 224.27 212.898 226.296 212.898C227.527 212.898 228.72 213.101 229.876 213.509C231.031 213.916 232.068 214.555 232.987 215.426C233.905 216.297 234.629 217.429 235.16 218.821C235.69 220.204 235.955 221.884 235.955 223.864V225.369H218.612V222.188H231.793C231.793 221.07 231.566 220.08 231.112 219.219C230.657 218.348 230.018 217.661 229.194 217.159C228.379 216.657 227.423 216.406 226.325 216.406C225.131 216.406 224.09 216.7 223.2 217.287C222.319 217.865 221.637 218.622 221.154 219.56C220.681 220.488 220.444 221.496 220.444 222.585V225.071C220.444 226.529 220.7 227.77 221.211 228.793C221.732 229.815 222.456 230.597 223.384 231.136C224.312 231.667 225.397 231.932 226.637 231.932C227.442 231.932 228.176 231.818 228.839 231.591C229.502 231.354 230.075 231.004 230.558 230.54C231.04 230.076 231.41 229.503 231.665 228.821L235.685 229.545C235.363 230.729 234.786 231.766 233.952 232.656C233.129 233.537 232.092 234.223 230.842 234.716C229.601 235.199 228.185 235.44 226.594 235.44Z" fill="#111111"/>
</g>
<defs>
<clipPath id="clip0_520_110">
<rect width="240" height="240" fill="white"/>
</clipPath>
</defs>
</svg>
