<svg width="406" height="406" viewBox="0 0 406 406" fill="none" xmlns="http://www.w3.org/2000/svg">
<g clip-path="url(#clip0_399_72)">
<path d="M229 162H271ZM179 162H221ZM130 162H172ZM81 162H122ZM31 162H73ZM81 116H122ZM130 116H172ZM179 116H221ZM179 70H221Z" fill="black"/>
<path d="M229 162H271M179 162H221M130 162H172M81 162H122M31 162H73M81 116H122M130 116H172M179 116H221M179 70H221" stroke="#066DA5" stroke-width="38"/>
<path d="M405.471 166C405.471 166 387.471 149 350.471 155C346.471 126 315.471 109 315.471 109C315.471 109 286.471 144 307.471 183C301.471 186 291.471 190 276.471 190H1.47123C-3.52877 209 -3.52876 335 134.471 335C233.471 335 307.471 289 342.471 205C394.471 209 405.471 166 405.471 166Z" fill="#066DA5"/>
</g>
<defs>
<clipPath id="clip0_399_72">
<rect width="405.57" height="405.75" fill="white"/>
</clipPath>
</defs>
</svg>
