<svg width="27" height="27" viewBox="0 0 27 27" fill="none" xmlns="http://www.w3.org/2000/svg">
<path d="M3.6543 21.769L3.81757 21.5404L11.541 6.88553L11.5573 6.73039L8.15267 0.33524C7.86742 -0.200469 7.0644 -0.0650235 6.97079 0.534661L3.6543 21.769Z" fill="#FFC24A"/>
<path d="M13.9944 11.4598L16.4589 8.93578L13.9944 4.24293C13.7603 3.79746 13.1918 3.75079 12.9603 4.19754L11.5983 6.82133L11.5576 6.95546L13.9944 11.4598Z" fill="#FFA50E"/>
<path d="M3.6543 21.7689L3.7283 21.6945L3.9972 21.5852L13.8801 11.739L14.0053 11.3982L11.5399 6.7002L3.6543 21.7689Z" fill="#F6820C"/>
<path d="M23.2204 21.7046L20.6856 6.09365C20.6063 5.60522 20.1042 5.40311 19.7547 5.75332L3.75391 21.7385L12.5492 26.6545C13.1069 26.966 13.7862 26.9661 14.3441 26.655L23.2204 21.7046Z" fill="#FCCA3F"/>
</svg>
