<svg width="26" height="26" viewBox="0 0 26 26" fill="none" xmlns="http://www.w3.org/2000/svg">
<g clip-path="url(#clip0_388_220)">
<path d="M0 0H26V26H0V0Z" fill="#F0DB4F"/>
<path d="M23.8724 19.7991C23.6821 18.6128 22.9085 17.6168 20.6174 16.6875C19.8216 16.3218 18.9344 16.0598 18.6699 15.4567C18.576 15.1058 18.5636 14.9081 18.623 14.6955C18.7935 14.006 19.6165 13.791 20.269 13.9887C20.6891 14.1296 21.087 14.4533 21.3268 14.9699C22.4488 14.2433 22.4463 14.2482 23.2298 13.749C22.9431 13.3041 22.7899 13.099 22.602 12.9087C21.9273 12.1549 21.0079 11.7668 19.5374 11.7965C19.2828 11.8286 19.0258 11.8632 18.7712 11.8954C18.0372 12.0807 17.3378 12.4663 16.9275 12.9828C15.6967 14.3792 16.0477 16.8235 17.5454 17.8294C19.0209 18.9366 21.1884 19.1887 21.4652 20.2243C21.7346 21.4921 20.5334 21.9024 19.3397 21.7566C18.4598 21.5737 17.9705 21.1264 17.4416 20.3132C16.4678 20.8767 16.4678 20.8767 15.4669 21.4526C15.7042 21.9716 15.9538 22.2064 16.3517 22.6562C18.235 24.5667 22.948 24.4727 23.7933 21.5811C23.8279 21.4822 24.0553 20.8199 23.8724 19.7991ZM14.1347 11.9497H11.7028C11.7028 14.0505 11.6929 16.1364 11.6929 18.2372C11.6929 19.5742 11.7621 20.8001 11.5447 21.1758C11.1888 21.9147 10.2669 21.8233 9.84675 21.6799C9.41918 21.4698 9.20169 21.1708 8.9496 20.7482C8.8804 20.6271 8.8285 20.5332 8.81117 20.5258C8.15131 20.9286 7.49387 21.3339 6.83398 21.7368C7.16272 22.4115 7.6471 22.9972 8.26744 23.3778C9.19425 23.9339 10.4399 24.1044 11.7424 23.8054C12.5901 23.5582 13.3216 23.0467 13.7047 22.2682C14.2583 21.2474 14.1397 20.0117 14.1347 18.645C14.1471 16.4157 14.1347 14.1864 14.1347 11.9497Z" fill="#323330"/>
</g>
<defs>
<clipPath id="clip0_388_220">
<rect width="26" height="26" fill="white"/>
</clipPath>
</defs>
</svg>
