<svg width="71" height="33" viewBox="0 0 71 33" fill="none" xmlns="http://www.w3.org/2000/svg">
<g clip-path="url(#clip0_1497_7103)">
<path d="M0 1.97107C13.1708 1.97107 20.0295 12.1175 20.0295 21.0652C20.0295 27.45 15.2472 30.3314 11.7965 30.3314H11.7063C8.25557 30.3314 3.47326 27.45 3.47326 21.0652C3.47326 12.1175 10.3295 1.97107 23.5003 1.97107" stroke="#4DFF68" stroke-width="3.9397" stroke-miterlimit="10"/>
<path d="M23.5002 1.97107C36.671 1.97107 43.5297 12.1175 43.5297 21.0652C43.5297 27.45 38.7474 30.3314 35.2967 30.3314H35.2064C31.7557 30.3314 26.9734 27.45 26.9734 21.0652C26.9734 12.1175 33.8297 1.97107 47.0005 1.97107" stroke="#4DFF68" stroke-width="3.9397" stroke-miterlimit="10"/>
<path d="M47.0003 1.97107C60.1711 1.97107 67.0299 12.1175 67.0299 21.0652C67.0299 27.45 62.2476 30.3314 58.7969 30.3314H58.7066C55.2559 30.3314 50.4736 27.45 50.4736 21.0652C50.4736 12.1175 57.3298 1.97107 70.5006 1.97107" stroke="#4DFF68" stroke-width="3.9397" stroke-miterlimit="10"/>
</g>
<defs>
<clipPath id="clip0_1497_7103">
<rect width="70.5083" height="32.3" fill="white"/>
</clipPath>
</defs>
</svg> 