<svg width="27" height="27" viewBox="0 0 27 27" fill="none" xmlns="http://www.w3.org/2000/svg">
<path d="M22.3559 5.30222C22.3373 5.16722 22.219 5.09251 22.1213 5.08428C22.0238 5.07614 19.9592 4.92311 19.9592 4.92311C19.9592 4.92311 18.5253 3.4996 18.3679 3.34204C18.2105 3.18457 17.9029 3.23247 17.7835 3.2676C17.766 3.27278 17.4703 3.36405 16.9811 3.51541C16.5022 2.13712 15.6568 0.870522 14.1697 0.870522C14.1287 0.870522 14.0864 0.872187 14.0441 0.874591C13.6212 0.315266 13.0973 0.0722656 12.6448 0.0722656C9.18053 0.0722656 7.52549 4.4029 7.00657 6.60358C5.66045 7.0207 4.70417 7.31723 4.58203 7.35561C3.83065 7.5913 3.80689 7.61498 3.70823 8.32299C3.63398 8.85901 1.66797 24.0631 1.66797 24.0631L16.9875 26.9334L25.2882 25.1377C25.2882 25.1377 22.3742 5.43722 22.3559 5.30222ZM16.1344 3.77728L14.8381 4.17848C14.8386 4.08713 14.8391 3.99725 14.8391 3.89896C14.8391 3.04236 14.7202 2.35266 14.5294 1.80591C15.2957 1.90207 15.806 2.77393 16.1344 3.77728ZM13.5789 1.97577C13.7919 2.50957 13.9304 3.27565 13.9304 4.30942C13.9304 4.36231 13.9299 4.41067 13.9295 4.45958C13.0865 4.7207 12.1704 5.0042 11.2523 5.28863C11.7678 3.29914 12.7341 2.33823 13.5789 1.97577ZM12.5496 1.00145C12.6991 1.00145 12.8498 1.05222 12.9939 1.15143C11.8837 1.67386 10.6936 2.98965 10.1911 5.61725L8.07492 6.27265C8.66356 4.26845 10.0614 1.00145 12.5496 1.00145Z" fill="#95BF46"/>
<path d="M22.1213 5.08409C22.0238 5.07596 19.9592 4.92293 19.9592 4.92293C19.9592 4.92293 18.5253 3.49942 18.368 3.34185C18.3091 3.28323 18.2296 3.25318 18.1466 3.24023L16.9883 26.933L25.2882 25.1375C25.2882 25.1375 22.3742 5.43704 22.3559 5.30204C22.3373 5.16704 22.2191 5.09232 22.1213 5.08409Z" fill="#5E8E3E"/>
<path d="M14.1697 9.67065L13.1462 12.7152C13.1462 12.7152 12.2494 12.2366 11.1502 12.2366C9.53871 12.2366 9.45762 13.2479 9.45762 13.5027C9.45762 14.8932 13.0823 15.426 13.0823 18.683C13.0823 21.2455 11.457 22.8956 9.26556 22.8956C6.63584 22.8956 5.29102 21.2589 5.29102 21.2589L5.99514 18.9325C5.99514 18.9325 7.37751 20.1193 8.54396 20.1193C9.30616 20.1193 9.61619 19.5192 9.61619 19.0807C9.61619 17.2669 6.6425 17.186 6.6425 14.2055C6.6425 11.697 8.44299 9.26953 12.0774 9.26953C13.4778 9.26953 14.1697 9.67065 14.1697 9.67065Z" fill="white"/>
</svg>
